<?xml version="1.0" encoding="UTF-8"?>
<svg width="60px" height="60px" viewBox="0 0 60 60" version="1.1" xmlns="http://www.w3.org/2000/svg" xmlns:xlink="http://www.w3.org/1999/xlink">
    <!-- Generator: Sketch 47.1 (45422) - http://www.bohemiancoding.com/sketch -->
    <title>ic-area_b</title>
    <desc>Created with Sketch.</desc>
    <defs>
        <filter x="-2.8%" y="-6.1%" width="105.6%" height="113.7%" filterUnits="objectBoundingBox" id="filter-1">
            <feOffset dx="0" dy="2" in="SourceAlpha" result="shadowOffsetOuter1"></feOffset>
            <feGaussianBlur stdDeviation="5.5" in="shadowOffsetOuter1" result="shadowBlurOuter1"></feGaussianBlur>
            <feColorMatrix values="0 0 0 0 0   0 0 0 0 0   0 0 0 0 0  0 0 0 0.084522192 0" type="matrix" in="shadowBlurOuter1" result="shadowMatrixOuter1"></feColorMatrix>
            <feMerge>
                <feMergeNode in="shadowMatrixOuter1"></feMergeNode>
                <feMergeNode in="SourceGraphic"></feMergeNode>
            </feMerge>
        </filter>
        <linearGradient x1="91.0744419%" y1="0%" x2="5.38721587%" y2="94.0848214%" id="linearGradient-2">
            <stop stop-color="#898C8E" offset="0%"></stop>
            <stop stop-color="#2A2A2A" offset="100%"></stop>
        </linearGradient>
    </defs>
    <g id="知道2.0" stroke="none" stroke-width="1" fill="none" fill-rule="evenodd">
        <g id="ic_list" transform="translate(-257.000000, -258.000000)">
            <g id="Group-5" filter="url(#filter-1)" transform="translate(57.000000, 112.000000)">
                <g id="快捷入口">
                    <g id="Group-4" transform="translate(200.000000, 146.000000)">
                        <path d="M28.0197211,53.9194713 C28.0067592,53.8455738 28,53.769541 28,53.6919296 L28,47.8901424 C19.6567668,46.9678448 13.0321552,40.3432332 12.1098576,32 L6.3080704,32 C6.23045896,32 6.15442622,31.9932408 6.08052873,31.9802789 C7.03410076,43.6556847 16.3443153,52.9658992 28.0197211,53.9194713 Z M31.9802789,53.9194713 C43.6556847,52.9658992 52.9658992,43.6556847 53.9194713,31.9802789 C53.8455738,31.9932408 53.769541,32 53.6919296,32 L47.8901424,32 C46.9678448,40.3432332 40.3432332,46.9678448 32,47.8901424 L32,53.6919296 C32,53.769541 31.9932408,53.8455738 31.9802789,53.9194713 Z M28,44.8678287 L28,42.3080704 L28,42.3080704 C28,41.5856431 28.5856431,41 29.3080704,41 L30.6919296,41 L30.6919296,41 C31.4143569,41 32,41.5856431 32,42.3080704 L32,44.8678287 C38.6844442,43.9772175 43.9772175,38.6844442 44.8678287,32 L43.3080704,32 C42.5856431,32 42,31.4143569 42,30.6919296 L42,29.3080704 C42,28.5856431 42.5856431,28 43.3080704,28 L44.8678287,28 C43.9772175,21.3155558 38.6844442,16.0227825 32,15.1321713 L32,17.6919296 L32,17.6919296 C32,18.4143569 31.4143569,19 30.6919296,19 L29.3080704,19 C28.5856431,19 28,18.4143569 28,17.6919296 L28,15.1321713 C21.3155558,16.0227825 16.0227825,21.3155558 15.1321713,28 L16.6919296,28 C17.4143569,28 18,28.5856431 18,29.3080704 L18,30.6919296 L18,30.6919296 C18,31.4143569 17.4143569,32 16.6919296,32 L15.1321713,32 C16.0227825,38.6844442 21.3155558,43.9772175 28,44.8678287 Z M6.08052873,28.0197211 C6.15442622,28.0067592 6.23045896,28 6.3080704,28 L12.1098576,28 C13.0321552,19.6567668 19.6567668,13.0321552 28,12.1098576 L28,6.3080704 C28,6.23045896 28.0067592,6.15442622 28.0197211,6.08052873 C16.3443153,7.03410076 7.03410076,16.3443153 6.08052873,28.0197211 Z M53.9194713,28.0197211 C52.9658992,16.3443153 43.6556847,7.03410076 31.9802789,6.08052873 C31.9932408,6.15442622 32,6.23045896 32,6.3080704 L32,12.1098576 C40.3432332,13.0321552 46.9678448,19.6567668 47.8901424,28 L53.6919296,28 C53.769541,28 53.8455738,28.0067592 53.9194713,28.0197211 Z M30,58 C14.536027,58 2,45.463973 2,30 C2,14.536027 14.536027,2 30,2 C45.463973,2 58,14.536027 58,30 C58,45.463973 45.463973,58 30,58 Z" id="ic" fill="url(#linearGradient-2)"></path>
                        <circle id="Oval" fill="#FF5B5B" opacity="0.83814538" cx="30.5" cy="29.5" r="4.5"></circle>
                    </g>
                </g>
            </g>
        </g>
    </g>
</svg>