<?xml version="1.0" encoding="UTF-8"?>
<svg width="60px" height="60px" viewBox="0 0 60 60" version="1.1" xmlns="http://www.w3.org/2000/svg" xmlns:xlink="http://www.w3.org/1999/xlink">
    <!-- Generator: Sketch 47.1 (45422) - http://www.bohemiancoding.com/sketch -->
    <title>ic_waybill</title>
    <desc>Created with Sketch.</desc>
    <defs>
        <filter x="-2.5%" y="-3.7%" width="104.9%" height="108.4%" filterUnits="objectBoundingBox" id="filter-1">
            <feOffset dx="0" dy="2" in="SourceAlpha" result="shadowOffsetOuter1"></feOffset>
            <feGaussianBlur stdDeviation="5.5" in="shadowOffsetOuter1" result="shadowBlurOuter1"></feGaussianBlur>
            <feColorMatrix values="0 0 0 0 0   0 0 0 0 0   0 0 0 0 0  0 0 0 0.084522192 0" type="matrix" in="shadowBlurOuter1" result="shadowMatrixOuter1"></feColorMatrix>
            <feMerge>
                <feMergeNode in="shadowMatrixOuter1"></feMergeNode>
                <feMergeNode in="SourceGraphic"></feMergeNode>
            </feMerge>
        </filter>
        <linearGradient x1="91.0744419%" y1="0%" x2="5.38721587%" y2="94.0848214%" id="linearGradient-2">
            <stop stop-color="#898C8E" offset="0%"></stop>
            <stop stop-color="#2A2A2A" offset="100%"></stop>
        </linearGradient>
    </defs>
    <g id="知道2.0" stroke="none" stroke-width="1" fill="none" fill-rule="evenodd">
        <g id="首页推荐2-copy-3" transform="translate(-261.000000, -425.000000)" fill="url(#linearGradient-2)">
            <g id="Group-5" filter="url(#filter-1)" transform="translate(20.000000, 309.000000)">
                <g id="快捷入口" transform="translate(0.000000, 76.000000)">
                    <g id="查找-表单-列表" transform="translate(241.000000, 40.000000)">
                        <path d="M53.2339717,45.3559583 L59.0947284,51.216715 C59.8550384,51.977025 59.8550384,53.209731 59.0947284,53.970041 L58.970041,54.0947284 C58.209731,54.8550384 56.977025,54.8550384 56.216715,54.0947284 L50.3559583,48.2339717 C48.0237002,49.9715622 45.1319524,51 42,51 C34.2680135,51 28,44.7319865 28,37 C28,29.2680135 34.2680135,23 42,23 C49.7319865,23 56,29.2680135 56,37 C56,40.1319524 54.9715622,43.0237002 53.2339717,45.3559583 Z M42,47 C47.5228475,47 52,42.5228475 52,37 C52,31.4771525 47.5228475,27 42,27 C36.4771525,27 32,31.4771525 32,37 C32,42.5228475 36.4771525,47 42,47 Z" id="Combined-Shape"></path>
                        <path d="M50.7324356,19 C50.3866262,19.5978014 49.7402824,20 49,20 C48.2597176,20 47.6133738,19.5978014 47.2675644,19 L47,19 L47,8 L7,8 L7,52 L30,52 C31.1045695,52 32,52.8954305 32,54 C32,55.1045695 31.1045695,56 30,56 L32.0634529,56 L3,56 L3,4 L51,4 L51,29.0634529 L51,19 L50.7324356,19 Z M15,32 L23,32 C24.1045695,32 25,32.8954305 25,34 C25,35.1045695 24.1045695,36 23,36 L15,36 C13.8954305,36 13,35.1045695 13,34 C13,32.8954305 13.8954305,32 15,32 Z M15,18 L35,18 C36.1045695,18 37,18.8954305 37,20 C37,21.1045695 36.1045695,22 35,22 L15,22 C13.8954305,22 13,21.1045695 13,20 C13,18.8954305 13.8954305,18 15,18 Z" id="Combined-Shape"></path>
                    </g>
                </g>
            </g>
        </g>
    </g>
</svg>