<?xml version="1.0" encoding="UTF-8"?>
<svg width="120px" height="44px" viewBox="0 0 120 44" version="1.1" xmlns="http://www.w3.org/2000/svg" xmlns:xlink="http://www.w3.org/1999/xlink">
    <!-- Generator: Sketch 51.1 (57501) - http://www.bohemiancoding.com/sketch -->
    <title>ic_logo</title>
    <desc>Created with Sketch.</desc>
    <defs></defs>
    <g id="顺丰知道官网" stroke="none" stroke-width="1" fill="none" fill-rule="evenodd">
        <g id="首页2.1-top-copy" transform="translate(-172.000000, -11.000000)">
            <g id="ic_logo" transform="translate(172.000000, 11.000000)">
                <g id="Group" transform="translate(46.884176, 23.473214)" fill="#FFFFFF" fill-rule="nonzero">
                    <path d="M2.41391804,0.356542126 C2.40877475,1.06774338 2.40706032,1.62312923 2.41006057,2.02227279 C2.41263222,2.42184324 2.42163298,3.68416142 2.43706285,5.81008113 C2.45249272,7.93557394 2.44992108,9.46256486 2.42934791,10.3902001 C2.40320285,11.3489984 2.344055,12.0251946 2.25061854,12.4192154 C2.15718208,12.8132363 2.05517347,13.1534688 1.9441641,13.4394861 C1.83272613,13.7255034 1.73328916,13.9329727 1.6454246,14.061894 L1.26524965,14.6339286 C0.934364582,14.0977528 0.512614697,13.5440746 6.50035581e-14,12.9720399 C0.227590639,12.6783386 0.39217596,12.4038473 0.492898748,12.1485662 C0.593621535,11.8932851 0.671628119,11.5624442 0.725632678,11.1551897 C0.779637236,10.7479352 0.810925592,10.1554098 0.818640529,9.37718656 C0.826355465,8.59896334 0.822497997,7.79512663 0.807068123,6.96567643 L0.729490146,3.80411793 C0.703345082,2.39196083 0.685343563,1.60391911 0.675485588,1.4387121 L0.60519394,0.294642857 C1.17952813,0.351419428 1.78257904,0.372337111 2.41391804,0.356542126 Z M2.83849918,1.27678571 L4.50244698,1.27678571 L4.44841441,2.74679504 L4.44841441,10.9489343 L4.50244698,12.4732143 L2.83849918,12.4732143 L2.88444814,10.9254312 L2.88444814,2.74636771 L2.83849918,1.27678571 Z M6.65579119,0.0982142857 L6.5939203,1.62477609 L6.5939203,13.0476696 L6.65579119,14.5357143 L4.89396411,14.5357143 L4.94047396,13.0168559 L4.94047396,1.62520406 L4.89396411,0.0986422537 L6.65579119,0.0986422537 L6.65579119,0.0982142857 Z M7.54592077,12.7583646 C7.80118245,12.6651021 8.13712048,12.4742794 8.55458858,12.1863262 C8.97205668,11.8983729 9.28878605,11.5640034 9.50520357,11.1823579 C9.72162108,10.8011422 9.85693538,10.0670764 9.91114647,8.97973065 C9.96535756,7.89281467 9.97944391,7.08482652 9.95383237,6.5557662 L9.9077316,5.59821429 C10.1809214,5.6136864 10.3892285,5.61884377 10.5335069,5.6136864 L11.2758147,5.59821429 L11.7086497,5.59821429 C11.6779159,6.13286176 11.6377911,6.95374334 11.5891292,8.0612888 C11.5400404,9.16926404 11.5024768,9.89000666 11.4768653,10.224806 C11.4508269,10.5596053 11.4047261,10.8385332 11.3377092,11.0615895 L11.1520256,11.6998142 C11.4149707,11.4041249 11.6262659,11.1290651 11.7859112,10.8750646 C12.0744679,11.113593 12.2601515,11.262727 12.3425353,11.3224665 C12.4249191,11.3822061 12.785615,11.6405044 13.4246229,12.0969317 C14.0636308,12.5533591 14.5481158,12.8830011 14.8776509,13.0854279 C14.496039,13.5990161 14.2540099,13.9596023 14.1511369,14.1671865 L13.9347194,14.5720401 C13.3832175,14.1156128 12.9128189,13.736546 12.5239504,13.4356993 C12.134655,13.1348527 11.5694937,12.7557859 10.8271859,12.2993586 C10.4148401,12.802632 10.0490219,13.1825584 9.7297314,13.4395674 C9.41001401,13.6965764 8.81753372,14.0945535 7.95186368,14.6339286 C7.64281776,14.1048682 7.42640025,13.7700689 7.30261114,13.6303901 L6.75367047,13.0076375 C7.02686023,12.9345748 7.29065909,12.8516271 7.54592077,12.7583646 Z M7.04730832,0.491071429 L8.25770925,0.537902264 L13.1069282,0.537902264 L14.4861338,0.491071429 L14.4861338,2.21822701 L13.1069282,2.16409229 L11.6130709,2.16409229 C11.5775331,2.57396951 11.5415723,2.97568356 11.5060344,3.37009371 L13.1069282,3.37009371 L14.1108714,3.31552934 L14.0571416,4.6770607 L14.0571416,9.44607239 L14.1108714,10.9554001 L12.3564035,10.9554001 L12.3949028,9.68710082 L12.3949028,4.95718643 L9.1850769,4.95718643 L9.1850769,9.88946158 L9.21553788,11.1964286 L7.44583949,11.1964286 L7.49914621,9.64800351 L7.49914621,4.66116399 L7.44583949,3.3150997 L8.76327693,3.36966407 L9.74395129,3.36966407 C9.77483534,3.0427075 9.79260425,2.84593207 9.79768108,2.77847848 L9.81291157,2.16409229 L8.25770925,2.16409229 L7.04730832,2.21822701 L7.04730832,0.491071429 Z" id="Shape"></path>
                    <polygon id="Shape" points="25.7422512 10.2142857 25.7422512 8.34821429 21.6313214 8.34821429 21.6313214 6.28571429 25.7422512 6.28571429 25.7422512 4.32142857 20.5546493 4.32142857 20.5546493 2.35714286 25.7422512 2.35714286 25.7422512 0.0982142857 27.8955954 0.0982142857 27.8955954 2.35714286 32.8874388 2.35714286 32.8874388 4.32142857 27.8955954 4.32142857 27.8955954 6.28571429 31.908646 6.28571429 31.908646 8.34821429 27.8955954 8.34821429 27.8955954 10.2142857 33.3768352 10.2142857 33.3768352 12.1785714 27.8955954 12.1785714 27.8955954 14.5357143 25.7422512 14.5357143 25.7422512 12.1785714 19.9673736 12.1785714 19.9673736 10.2142857"></polygon>
                    <path d="M40.959383,11.1224334 L40.959383,6.87465884 L40.0346909,6.87465884 L39.0865942,6.91318547 L39.0865942,5.10714286 L40.0346909,5.14609756 L41.7296051,5.14609756 L42.777703,5.10714286 L42.7470643,6.29333486 L42.7470643,11.1767987 C42.8547252,11.2645538 42.9368538,11.3317614 42.9934503,11.3784214 L43.4096256,11.7970774 C43.6457986,12.0243845 43.9849517,12.236281 44.4266592,12.4327668 C44.8683667,12.6292525 46.0781687,12.7508255 48.0560651,12.7970574 C50.033536,12.8437174 51.8293025,12.7144392 53.4420881,12.4096508 C53.2263408,13.1639165 53.102935,13.6758925 53.0722964,13.9442947 L53.0029338,14.4712533 C51.3952547,14.5226222 50.103324,14.5431697 49.1275675,14.533324 C48.6756471,14.533324 47.9318083,14.5230502 46.896902,14.5025027 C45.8615703,14.4819552 45.1104973,14.4211687 44.6428321,14.3201434 C44.1751668,14.219118 43.7917579,14.0748572 43.4909031,13.8860767 C43.1904739,13.6972962 42.9245133,13.4931051 42.6934466,13.2735033 C42.46238,13.0539016 42.2874842,12.9040758 42.1696105,12.824026 C42.0513111,12.7435482 41.9257777,12.6986005 41.7921591,12.6883267 C41.6585404,12.6831898 41.5236452,12.7178638 41.3874733,12.7932047 C41.2513014,12.8681176 41.1278957,12.9558727 41.0176815,13.0568981 C40.9070419,13.1574954 40.7300185,13.3253003 40.4857602,13.5607407 C40.2415019,13.7961812 40.1095854,13.9288841 40.0887341,13.9601334 L39.7342617,14.4019054 C39.4980886,13.6266641 39.3308525,13.1099792 39.2334045,12.8514228 L38.9559543,12.1305468 C39.1717016,12.0582023 39.3206396,12.003837 39.4027683,11.9678788 C39.4848969,11.9310645 40.0036266,11.6498201 40.959383,11.1224334 Z M39.4453507,1.29761905 C39.9506318,1.02717391 40.4918534,0.659679089 41.0685926,0.196428571 C41.8034701,1.09704969 42.4698491,1.95626294 43.0668842,2.77363699 C42.5920468,3.16959972 42.3011402,3.42192892 42.1941644,3.53148723 L41.6043174,4.125 C41.3032629,3.69280538 41.0174303,3.28907867 40.7468195,2.91425121 C40.4766315,2.53942374 40.0428086,2.00069013 39.4453507,1.29761905 Z M46.2174094,8.04958365 L45.0349875,8.04958365 L43.7369264,8.08066805 L43.7753306,6.92415783 L43.7753306,4.74186223 L43.7369264,3.77015519 L44.9965833,3.80890424 L47.2372536,3.80890424 L47.2372536,3.09949849 L44.9423908,3.09949849 L43.2427927,3.15357684 L43.2427927,1.35706851 L44.9270291,1.41114686 L47.2372536,1.41114686 L47.2372536,0.925293338 L47.1834877,0 L49.0998561,0 L49.0610252,0.925293338 L49.0610252,1.41114686 L51.4177614,1.41114686 L53.1561903,1.35706851 L53.1561903,3.15357684 L51.4177614,3.09949849 L49.0610252,3.09949849 L49.0610252,3.80890424 L51.193737,3.80890424 L52.5613523,3.77015519 L52.5225215,4.74186223 L52.5225215,6.92415783 L52.5613523,8.08066805 L51.193737,8.04958365 L50.212297,8.04958365 C50.7734247,8.40428653 51.3234578,8.74366011 51.8619697,9.06770439 C52.4000548,9.39132286 52.9266187,9.72047691 53.4420881,10.0547407 C53.3183413,10.2757381 53.2112363,10.4737415 53.1211999,10.6483251 C53.0311634,10.8233346 52.8754132,11.1831472 52.6535224,11.7277631 C51.7420633,11.0285768 50.5447065,10.2497634 49.0610252,9.39132286 L49.0610252,10.4937547 L49.1228986,12.375 L47.1834877,12.375 L47.2372536,10.4937547 L47.2372536,9.4296461 C46.8045665,9.82565291 46.3744398,10.1726911 45.9468733,10.470335 C45.5193068,10.7684046 44.8032823,11.1771858 43.7987998,11.6962528 C43.5564268,11.156321 43.3763539,10.7939534 43.2577276,10.6091503 L42.8711256,10.0074754 C43.7621025,9.75028388 44.4034522,9.48968584 44.7951748,9.22482967 C45.1873241,8.96082513 45.6614023,8.56907646 46.2174094,8.04958365 Z M47.177814,5.5 L45.4159869,5.5 L45.4159869,6.48214286 L47.177814,6.48214286 L47.177814,5.5 Z M49.0375204,6.48214286 L50.7014682,6.48214286 L50.7014682,5.5 L49.0375204,5.5 L49.0375204,6.48214286 Z M49.0375204,9.03571429 C49.3752107,8.69996577 49.6691188,8.37273424 49.9184339,8.05357143 L49.0375204,8.05357143 L49.0375204,9.03571429 Z" id="Shape"></path>
                    <path d="M60.491231,7.03533115 L59.49597,7.03533115 L58.5548177,7.0735786 L58.5548177,5.30357143 L59.49597,5.34181888 L61.262814,5.34181888 L62.3194268,5.30357143 L62.288751,6.46544409 L62.288751,10.7211108 C62.4378697,10.8286286 62.5507739,10.9080984 62.6283157,10.9595199 L63.3457898,11.5906029 C63.736481,11.9089067 64.2230341,12.160065 64.8041712,12.3445027 C65.3848821,12.5293654 66.2386935,12.6139348 67.3656051,12.5986358 C68.4920907,12.5833368 69.4460246,12.551039 70.2278329,12.5025922 C71.0096411,12.4537205 71.9069099,12.3292038 72.9200653,12.129467 C72.8173863,12.4630698 72.7360101,12.7452511 72.6772147,12.9760107 C72.6179933,13.2067703 72.5783703,13.4171313 72.5579197,13.6070937 L72.4650401,14.2844986 C71.0096411,14.3201962 69.7054912,14.338045 68.5534424,14.338045 C66.5271317,14.3482444 65.2182952,14.2955479 64.6265068,14.1803805 C64.0347184,14.0652132 63.593753,13.917323 63.3036105,13.737985 C63.013042,13.5582219 62.7339769,13.332562 62.4664153,13.0605801 C62.1988537,12.7885982 61.994774,12.6156347 61.8533243,12.5412646 C61.7118745,12.4668946 61.5640339,12.4350217 61.4098025,12.445221 C61.2295819,12.46052 61.0280585,12.5552887 60.8039544,12.7299521 C60.5807023,12.9041905 60.1163039,13.4094818 59.4116114,14.2458262 C59.1078352,13.4145815 58.9357095,12.9505124 58.8943823,12.8531939 L58.5318108,12.0606216 C58.8965126,11.9276055 59.2156267,11.7809902 59.488301,11.6220508 L60.1052265,11.2374514 L60.490805,10.9990423 L60.490805,7.03533115 L60.491231,7.03533115 Z M59.1190865,1.36476524 C59.6027682,1.03554729 59.946346,0.770296545 60.1493889,0.569439474 L60.6335017,0.0982142857 C60.9615603,0.412506561 61.2059877,0.649185275 61.367215,0.808676878 L62.2337036,1.68886583 L62.9363785,2.39165235 C62.6863469,2.63344844 62.5070139,2.81639469 62.3975174,2.94006465 L61.9371144,3.48080089 L61.5392194,3.92857143 C61.2008146,3.52728373 60.8882752,3.16693506 60.6024633,2.84752541 C60.3162203,2.5285422 59.8213302,2.03428882 59.1190865,1.36476524 Z M62.9363785,4.51785714 L64.8424752,4.57184439 L70.4694937,4.57184439 L72.3836564,4.51785714 L72.3836564,6.31899084 L70.4694937,6.26542868 L67.4333235,6.26542868 L68.0408122,6.67309619 C67.3641267,7.6070331 66.623763,8.59495727 65.8192968,9.63686869 C67.1004995,9.58033086 68.3944378,9.51359072 69.7015362,9.43664826 C69.3377222,8.90782827 68.9021642,8.34840133 68.3948623,7.75836744 C68.6818381,7.64061573 68.8983435,7.54539412 69.0443786,7.47355282 C69.1904136,7.40171152 69.5372468,7.2116934 70.0857272,6.90392356 C70.5828406,7.57642616 71.1054253,8.28931292 71.6539057,9.04385913 C72.2019616,9.79840535 72.5916714,10.3268002 72.822186,10.6294689 C72.2737056,11.0248086 71.9536171,11.2632877 71.8610717,11.3453314 L71.2463661,11.8839286 C71.0667939,11.5608553 70.8876463,11.2658383 70.7080742,10.9988777 C67.2745529,11.1990982 65.3064761,11.3402302 64.8046929,11.4222738 L64.1050832,11.5302483 C63.8181074,10.8989801 63.5311316,10.285991 63.2445803,9.69043085 C63.4598122,9.54674824 63.6415069,9.41326796 63.7900891,9.29041508 C63.9386712,9.16713711 64.1462617,8.95671436 64.4128606,8.65914684 C64.6794594,8.36157932 64.9486054,8.01640099 65.2198739,7.62361187 C65.4911425,7.23082274 65.7526471,6.77809501 66.0039632,6.26500359 L64.8433243,6.26500359 L62.9372275,6.31856574 L62.9372275,4.51785714 L62.9363785,4.51785714 Z M63.817292,2.45535714 L63.817292,0.6875 L65.2309545,0.718060796 L69.9942164,0.718060796 L71.3539967,0.6875 L71.3539967,2.45535714 L69.9942164,2.41715615 L65.2309545,2.41715615 L63.817292,2.45535714 Z" id="Shape"></path>
                </g>
                <g id="Group">
                    <path d="M30.8457185,24.7331109 C29.5537431,24.7331109 28.542114,23.7159169 28.542114,22.4174258 C28.542114,21.1321672 29.5537431,20.1294863 30.8457185,20.1294863 C32.1245061,20.1294863 33.1280524,21.1325941 33.1280524,22.4174258 C33.1284778,23.692013 32.1053626,24.7309766 30.8457185,24.7331109 Z" id="Shape" fill="#FF4E4E"></path>
                    <path d="M21.8444319,4.90657795 C26.094295,4.90657795 30.0752979,6.05566999 33.4981606,8.06103194 L37.5251079,4.90785852 C33.0540307,1.86438668 27.6576831,0.0844038462 21.8444319,0.0844038462 C16.0341586,0.0861112637 10.6378109,1.86438668 6.16673373,4.90785852 L10.1936811,8.06103194 C13.6144167,6.05566999 17.5983975,4.90657795 21.8444319,4.90657795 Z" id="Shape" fill="#FFFFFF"></path>
                    <path d="M10.1936811,35.9435879 L6.16460667,39.0924928 C10.6378109,42.1385258 16.0341586,43.9163743 21.8444319,43.9163743 C27.6576831,43.9163743 33.0519037,42.1385258 37.5251079,39.0924928 L33.4981606,35.9435879 C30.0752979,37.9463887 26.094295,39.0954808 21.8444319,39.0954808 C17.5975467,39.0959076 13.6144167,37.945535 10.1936811,35.9435879 Z" id="Shape" fill="#FFFFFF"></path>
                    <path d="M4.8083941,22.0020965 C4.8083941,17.7373942 5.95360245,13.7420371 7.95091048,10.3088472 L4.81179739,6.26909718 C1.77733559,10.7544832 0.00209247229,16.1691312 0.00209247229,22.0020965 C0.00209247229,27.8329275 1.77733559,33.2475755 4.81179739,37.7329615 L7.95091048,33.6915041 C5.95402787,30.2600216 4.8083941,26.2625302 4.8083941,22.0020965 Z" id="Shape" fill="#FFFFFF"></path>
                    <path d="M35.7388041,33.6923578 L38.8813205,37.7329615 C41.9145061,33.2475755 43.6867713,27.8329275 43.6867713,22.0020965 C43.6867713,16.1691312 41.9149315,10.7566174 38.8813205,6.26909718 L35.7388041,10.3088472 C37.7378138,13.7441714 38.8834476,17.7373942 38.8834476,22.0020965 C38.8834476,26.2625302 37.7361122,30.2600216 35.7388041,33.6923578 Z" id="Shape" fill="#FFFFFF"></path>
                    <path d="M14.8064204,32.5189351 C12.548335,32.5189351 10.6144133,31.9085333 8.8914958,30.6446174 L8.83321439,30.5976635 L8.83321439,30.5221102 L8.83321439,26.7149959 L8.83321439,26.3111916 L9.09314096,26.6189536 C9.58959644,27.2037442 11.4490711,29.109649 14.4856599,29.109649 C16.8292531,29.109649 17.0810968,27.383023 17.0810968,26.6364547 C17.0810968,25.1326466 15.5228137,24.2635711 13.7879847,23.4333393 L13.6544054,23.36675 C11.3933421,22.2923575 8.83363981,21.0672854 8.83363981,17.7459313 C8.83363981,14.7716099 11.3269779,12.5161113 14.7672825,12.3872012 C14.9251102,12.3799447 15.0769822,12.3769567 15.2288542,12.3769567 C18.1978026,12.3769567 19.6978043,13.4978764 19.969217,13.7245361 L20.0253714,13.77149 L20.027073,13.8440553 L20.027073,17.0992469 L20.027073,17.4304859 L19.7803342,17.2115096 C18.7248877,16.280967 17.0028211,15.6816635 15.4041238,15.6816635 C14.6715649,15.6816635 14.0304694,15.8084392 13.5497541,16.0385137 C12.8597363,16.3740213 12.5228103,16.9302126 12.5228103,17.7450776 C12.5228103,18.7682476 13.7177918,19.3807837 15.2292796,20.1555244 L15.4841012,20.2874224 C17.4639674,21.3080312 20.7817534,23.0214248 20.7817534,26.7990862 C20.7817534,28.4023513 20.1083267,30.0444602 19.0690458,30.9886621 C17.9736106,31.9759763 16.4599957,32.5189351 14.8064204,32.5189351 Z" id="Shape" fill="#FFFFFF"></path>
                    <path d="M26.5996841,32.6341858 L26.4529171,32.6341858 L23.0211207,32.6341858 L22.8735028,32.6341858 L22.8735028,32.486921 L22.8735028,13.7309389 L22.8735028,13.6276401 L22.9670934,13.5922112 C23.0976948,13.540135 26.1840569,12.3346981 29.4661083,12.3346981 C33.0059592,12.3346981 34.7880089,13.6545319 34.8084287,13.6681913 L34.8675609,13.7142916 L34.8675609,13.7877105 L34.8675609,17.0962589 L34.8675609,17.3988987 L34.6186951,17.2085216 C34.332393,16.9895453 32.7630491,15.8967981 29.8847134,15.8404533 C29.8204763,15.8374653 29.7511341,15.835331 29.6851953,15.835331 C28.2064642,15.835331 27.1569735,16.1554718 26.6647721,16.3432878 L26.5996841,16.3667648 L26.5996841,16.436342 L26.6005349,32.4873479 L26.5996841,32.6341858 Z" id="Shape" fill="#FFFFFF"></path>
                </g>
                <path d="M63.5921697,13.15325 L67.26969,6.97321429 L64.1109299,6.97321429 L62.005938,10.7784286 L59.9896248,6.97321429 L56.8561175,6.97321429 L56.8561175,7.08832143 L60.4790212,13.2194464 L56.7286786,19.7662143 L59.9021207,19.7296786 L61.9991843,15.8125 L63.9151713,19.7296786 L67.26969,19.7296786 L63.5921697,13.15325 Z M72.6585318,6.86910714 C74.0239478,6.86910714 75.4492659,7.02133929 76.5415987,7.66071429 C78.0526591,8.51930357 78.3034258,10.0180536 78.3034258,10.8035714 C78.3034258,12.0823214 77.9199347,13.2080536 77.4101794,13.8291607 C76.5363132,14.900875 74.6807178,15.4310357 71.8433931,15.4196429 L71.8433931,19.7410714 L68.635106,19.7410714 L68.635106,6.875 L72.6585318,6.86910714 Z M71.8433931,9.13392857 L71.8433931,13.1607143 C72.9357259,13.1607143 73.6416313,13.1349821 74.1331811,12.8609643 C75.098075,12.3311964 75.098075,11.2716607 75.098075,11.0159107 C75.098075,10.2142857 74.6200326,9.17046429 73.0179445,9.13392857 C72.6174225,9.13392857 72.2439152,9.11566071 71.8433931,9.13392857 Z M83.6867863,14.8303571 L82.903752,14.8303571 L82.903752,19.7296786 L79.6737357,19.7296786 L79.6737357,6.875 L83.1995432,6.90564286 C85.3295922,6.86910714 86.3126917,6.887375 87.2593801,7.38060714 C88.7522349,8.166125 88.9707015,9.8285 88.9707015,10.6322857 C88.9707015,12.9523036 87.3139967,13.7195536 86.4947471,14.0849107 C86.7981729,14.6207679 87.9176509,16.5023571 89.8531811,19.7296786 L86.3295269,19.7410714 L83.6867863,14.8303571 Z M82.903752,9.13392857 L82.903752,12.6696429 C84.9265905,12.7129953 85.9380098,12.1237095 85.9380098,10.9017857 C85.9380098,9.67986189 84.9265905,9.09057617 82.903752,9.13392857 Z M99.3200653,17.4717321 L94.2481566,17.4717321 L94.2481566,14.4270893 L98.7506036,14.4270893 L98.7506036,12.2797321 L94.2481566,12.2797321 L94.2481566,9.12391071 L99.1421207,9.12391071 L99.1421207,6.96280357 L91.1275693,6.96280357 L91.1275693,19.7306607 L99.3200653,19.7192679 L99.3200653,17.4717321 Z M106.484437,11.9841071 C104.955171,11.3447321 104.154127,11.0159107 104.154127,10.1938571 C104.154127,9.62755357 104.682088,8.91510714 105.883654,8.91510714 C107.267276,8.91510714 108.086525,9.48141071 108.760131,9.93810714 L108.92398,9.86503571 L109.069625,7.47194643 L108.978597,7.34407143 C108.195759,7.01525 107.376509,6.66816071 105.610571,6.66816071 C102.187928,6.66816071 101.004568,8.60455357 101.004568,10.5592143 C101.004568,12.769625 102.715889,13.5734107 103.7354,14.0666429 L104.336183,14.3406607 C105.592365,14.8704286 106.557259,15.327125 106.557259,16.2953214 C106.557259,16.9895 105.956476,17.8115536 104.372594,17.8115536 C102.715889,17.8115536 101.787406,17.0808393 101.259445,16.6606786 L101.07739,16.7154821 L100.949951,19.29125 L101.059184,19.4373929 C101.259445,19.5104643 101.459706,19.6018036 101.659967,19.6566071 C102.078695,19.80275 103.152822,20.1133036 104.518238,20.1133036 C105.064405,20.1133036 106.448026,20.0585 107.540359,19.547 C109.069625,18.7980179 109.725024,17.4096607 109.725024,15.8568929 C109.725024,14.815625 109.324502,13.7012857 108.359608,12.9523036 C107.868059,12.5869464 107.394715,12.3677321 106.957781,12.1667857 L106.484437,11.9841071 Z M116.715954,11.9841071 L117.189299,12.1667857 C117.626232,12.3677321 118.099576,12.5869464 118.591126,12.9523036 C119.55602,13.7012857 119.956542,14.815625 119.956542,15.8568929 C119.956542,17.4096607 119.301142,18.7980179 117.771876,19.547 C116.679543,20.0585 115.295922,20.1133036 114.749755,20.1133036 C113.384339,20.1133036 112.310212,19.80275 111.891485,19.6566071 C111.691223,19.6018036 111.490962,19.5104643 111.290701,19.4373929 L111.181468,19.29125 L111.308907,16.7154821 L111.490962,16.6606786 C112.018923,17.0808393 112.947406,17.8115536 114.604111,17.8115536 C116.187993,17.8115536 116.788777,16.9895 116.788777,16.2953214 C116.788777,15.327125 115.823883,14.8704286 114.5677,14.3406607 L113.966917,14.0666429 C112.947406,13.5734107 111.236085,12.769625 111.236085,10.5592143 C111.236085,8.60455357 112.419445,6.66816071 115.842088,6.66816071 C117.608026,6.66816071 118.427276,7.01525 119.210114,7.34407143 L119.301142,7.47194643 L119.155498,9.86503571 L118.991648,9.93810714 C118.318042,9.48141071 117.498793,8.91510714 116.115171,8.91510714 C114.913605,8.91510714 114.385644,9.62755357 114.385644,10.1938571 C114.385644,11.0159107 115.186688,11.3447321 116.715954,11.9841071 Z M55.8548124,17.4717321 L55.8548124,19.7192679 L47.6623165,19.7306607 L47.6623165,6.96280357 L55.6768679,6.96280357 L55.6768679,9.12391071 L50.7829038,9.12391071 L50.7829038,12.2797321 L55.2853507,12.2797321 L55.2853507,14.4270893 L50.7829038,14.4270893 L50.7829038,17.4717321 L55.8548124,17.4717321 Z" id="EXPRESS-Copy-3" fill="#FFFFFF"></path>
            </g>
        </g>
    </g>
</svg>